:FULLY-SPECIFIED
:FORCE-ALL-JOINTS-BE-3DOF
:DEGREES
2344
root 1.41746 14.3458 -18.833 975.032 -69.7133 113.013
lfemur -21.1602 -1.86259 5.58542
ltibia 30.5871 0 0
lfoot -9.6297 17.461 0
ltoes -33.8565 0 0
rfemur -65.1314 -7.73762 9.55517
rtibia 77.2004 0 0
rfoot -14.5679 -12.22 0
rtoes 0.616915 0 0
lowerback 20.7131 2.43803 -2.82966
upperback 0.458662 2.47489 0.20846
thorax -11.2878 1.26774 1.11978
lowerneck -5.73751 -1.71589 -4.36391
upperneck 3.21358 -1.971 -0.114391
head 2.17805 -1.05708 0.659418
lclavicle 1.0141e-014 -7.44371e-015 0
lhumerus -29.3815 -26.0182 86.8295
lradius 104.067 0 0
lwrist 63.2583 0 0
lhand -18.9543 399.588 0
lfingers 7.12502 0 0
lthumb 7.34937 -650.533 0
rclavicle 1.0141e-014 -7.44371e-015 0
rhumerus 44.5707 12.245 -42.1839
rradius 51.9888 0 0
rwrist 3.85656 0 0
rhand -7.02611 -400.608 0
rfingers 7.12502 0 0
rthumb 18.8466 290.272 0
2345
root 1.53188 14.4046 -18.9858 981.605 -72.7846 106.878
lfemur -23.8788 -1.87591 6.13945
ltibia 30.4891 0 0
lfoot -8.82992 16.1184 0
ltoes -32.3602 0 0
rfemur -64.4375 -6.66162 9.24685
rtibia 76.945 0 0
rfoot -15.2014 -12.6384 0
rtoes 0.291578 0 0
lowerback 20.8549 2.37073 -2.56863
upperback 0.442117 2.45396 0.251836
thorax -11.3737 1.24705 1.02
lowerneck -5.83451 -1.25502 -4.00759
upperneck 3.32442 -1.36239 -0.51329
head 2.2012 -0.761774 0.48643
lclavicle 6.05295e-015 -5.99587e-015 0
lhumerus -26.705 -26.9945 85.809
lradius 104.776 0 0
lwrist 63.1913 0 0
lhand -19.1981 399.409 0
lfingers 7.12502 0 0
lthumb 7.11402 -650.703 0
rclavicle 6.05295e-015 -5.99587e-015 0
rhumerus 43.641 13.0916 -41.768
rradius 53.0898 0 0
rwrist 3.20755 0 0
rhand -6.81028 -400.867 0
rfingers 7.12502 0 0
rthumb 19.0542 290.034 0
2346
root 1.64629 14.4633 -19.1386 988.105 -75.6138 100.798
lfemur -26.5406 -1.88186 6.61635
ltibia 30.4911 0 0
lfoot -8.05477 14.8345 0
ltoes -30.9047 0 0
rfemur -63.7418 -5.59924 8.96883
rtibia 76.6964 0 0
rfoot -15.8265 -13.0477 0
rtoes -0.0232941 0 0
lowerback 20.9846 2.30263 -2.31079
upperback 0.422191 2.43194 0.295027
thorax -11.4569 1.22598 0.922414
lowerneck -5.92337 -0.794496 -3.65242
upperneck 3.43735 -0.753995 -0.910474
head 2.22648 -0.466644 0.314982
lclavicle 2.09873e-015 -4.59414e-015 0
lhumerus -23.9594 -27.9713 84.7539
lradius 105.468 0 0
lwrist 62.9798 0 0
lhand -19.4622 399.234 0
lfingers 7.12502 0 0
lthumb 6.85904 -650.87 0
rclavicle 2.09873e-015 -4.59414e-015 0
rhumerus 42.6732 13.9708 -41.4152
rradius 54.2015 0 0
rwrist 2.56736 0 0
rhand -6.59383 -401.118 0
rfingers 7.12502 0 0
rthumb 19.2622 289.805 0
2347
root 1.76071 14.522 -19.2915 994.477 -78.1457 94.8267
lfemur -29.1214 -1.88033 7.00345
ltibia 30.6103 0 0
lfoot -7.31224 13.6264 0
ltoes -29.5073 0 0
rfemur -63.0485 -4.55863 8.72813
rtibia 76.4575 0 0
rfoot -16.4374 -13.4497 0
rtoes -0.324504 0 0
lowerback 21.1019 2.23417 -2.05637
upperback 0.399242 2.40904 0.33802
thorax -11.5368 1.20463 0.82711
lowerneck -6.00357 -0.336041 -3.29986
upperneck 3.55124 -0.14776 -1.30463
head 2.25379 -0.172602 0.145978
lclavicle -1.66527e-015 -3.26633e-015 0
lhumerus -21.1476 -28.9412 83.663
lradius 106.135 0 0
lwrist 62.5994 0 0
lhand -19.746 399.061 0
lfingers 7.12502 0 0
lthumb 6.58503 -651.035 0
rclavicle -1.66527e-015 -3.26633e-015 0
rhumerus 41.6687 14.8853 -41.1362
rradius 55.3248 0 0
rwrist 1.93615 0 0
rhand -6.3753 -401.359 0
rfingers 7.12502 0 0
rthumb 19.4723 289.587 0
2348
root 1.87512 14.5808 -19.4443 1000.66 -80.3248 89.0138
lfemur -31.5969 -1.8712 7.28809
ltibia 30.8639 0 0
lfoot -6.6103 12.5109 0
ltoes -28.185 0 0
rfemur -62.3615 -3.54795 8.53173
rtibia 76.2315 0 0
rfoot -17.0283 -13.8461 0
rtoes -0.608853 0 0
lowerback 21.2063 2.16572 -1.80558
upperback 0.373629 2.38549 0.380803
thorax -11.6128 1.1831 0.734189
lowerneck -6.07461 0.118633 -2.95139
upperneck 3.66496 0.454361 -1.69445
head 2.283 0.119437 -0.0196733
lclavicle -5.18264e-015 -2.04027e-015 0
lhumerus -18.2726 -29.8968 82.5348
lradius 106.767 0 0
lwrist 62.0259 0 0
lhand -20.0489 398.887 0
lfingers 7.12502 0 0
lthumb 6.29259 -651.203 0
rclavicle -5.18264e-015 -2.04027e-015 0
rhumerus 40.6289 15.838 -40.9415
rradius 56.4602 0 0
rwrist 1.31407 0 0
rhand -6.15323 -401.584 0
rfingers 7.12502 0 0
rthumb 19.6857 289.385 0
2349
root 1.98954 14.6395 -19.5971 1006.61 -82.0957 83.4106
lfemur -33.9429 -1.85436 7.45762
ltibia 31.2689 0 0
lfoot -5.95693 11.5049 0
ltoes -26.9547 0 0
rfemur -61.685 -2.57534 8.38665
rtibia 76.0215 0 0
rfoot -17.5936 -14.2387 0
rtoes -0.873143 0 0
lowerback 21.2972 2.09772 -1.55865
upperback 0.34571 2.36153 0.423364
thorax -11.6844 1.16147 0.64375
lowerneck -6.13596 0.56781 -2.60847
upperneck 3.77739 1.05041 -2.07862
head 2.31403 0.408556 -0.181067
lclavicle -8.39696e-015 -9.43762e-016 0
lhumerus -15.3372 -30.8306 81.3681
lradius 107.355 0 0
lwrist 61.2349 0 0
lhand -20.3703 398.708 0
lfingers 7.12502 0 0
lthumb 5.98232 -651.375 0
rclavicle -8.39696e-015 -9.43762e-016 0
rhumerus 39.5552 16.8319 -40.8417
rradius 57.6085 0 0
rwrist 0.701263 0 0
rhand -5.92614 -401.79 0
rfingers 7.12502 0 0
rthumb 19.9039 289.203 0
2350
root 2.10395 14.6983 -19.7499 1012.27 -83.4033 78.0681
lfemur -36.1352 -1.82968 7.49939
ltibia 31.8426 0 0
lfoot -5.36012 10.6254 0
ltoes -25.8337 0 0
rfemur -61.023 -1.64896 8.29988
rtibia 75.8303 0 0
rfoot -18.1275 -14.6291 0
rtoes -1.11418 0 0
lowerback 21.3743 2.03057 -1.31578
upperback 0.315843 2.33738 0.465692
thorax -11.751 1.13985 0.555889
lowerneck -6.18712 1.00977 -2.27257
upperneck 3.88739 1.63845 -2.45582
head 2.34676 0.693839 -0.337296
lclavicle -1.12518e-014 -4.63685e-018 0
lhumerus -12.3443 -31.7352 80.1614
lradius 107.891 0 0
lwrist 60.2022 0 0
lhand -20.7095 398.522 0
lfingers 7.12502 0 0
lthumb 5.65481 -651.557 0
rclavicle -1.12518e-014 -4.63685e-018 0
rhumerus 38.4491 17.8698 -40.8472
rradius 58.7704 0 0
rwrist 0.0978868 0 0
rhand -5.69257 -401.973 0
rfingers 7.12502 0 0
rthumb 20.1283 289.045 0
2351
root 2.21837 14.757 -19.9028 1017.57 -84.1919 73.0374
lfemur -38.1495 -1.79705 7.40072
ltibia 32.6022 0 0
lfoot -4.82785 9.88923 0
ltoes -24.8388 0 0
rfemur -60.3795 -0.776961 8.27841
rtibia 75.6613 0 0
rfoot -18.6243 -15.0193 0
rtoes -1.32876 0 0
lowerback 21.437 1.96467 -1.07722
upperback 0.284388 2.31326 0.507774
thorax -11.812 1.11834 0.470706
lowerneck -6.22757 1.44281 -1.94516
upperneck 3.99384 2.21651 -2.82476
head 2.38109 0.97437 -0.487455
lclavicle -1.36908e-014 7.49291e-016 0
lhumerus -9.2967 -32.6033 78.9135
lradius 108.366 0 0
lwrist 58.9034 0 0
lhand -21.0659 398.324 0
lfingers 7.12502 0 0
lthumb 5.31066 -651.75 0
rclavicle -1.36908e-014 7.49291e-016 0
rhumerus 37.3119 18.9545 -40.9687
rradius 59.9466 0 0
rwrist -0.49591 0 0
rhand -5.45106 -402.129 0
rfingers 7.12502 0 0
rthumb 20.3603 288.915 0
2352
root 2.33278 14.8158 -20.0556 1022.46 -84.4064 68.3696
lfemur -39.9616 -1.75635 7.14897
ltibia 33.5647 0 0
lfoot -4.3681 9.31331 0
ltoes -23.9873 0 0
rfemur -59.7586 0.0325121 8.32927
rtibia 75.5173 0 0
rfoot -19.0782 -15.4108 0
rtoes -1.51368 0 0
lowerback 21.485 1.90044 -0.843163
upperback 0.251703 2.28941 0.549599
thorax -11.867 1.09702 0.388297
lowerneck -6.2568 1.8652 -1.62771
upperneck 4.09561 2.78264 -3.18411
head 2.41692 1.24923 -0.630636
lclavicle -1.56575e-014 1.2902e-015 0
lhumerus -6.1974 -33.4275 77.623
lradius 108.772 0 0
lwrist 57.3143 0 0
lhand -21.439 398.113 0
lfingers 7.12502 0 0
lthumb 4.95046 -651.958 0
rclavicle -1.56575e-014 1.2902e-015 0
rhumerus 36.1451 20.089 -41.2168
rradius 61.1376 0 0
rwrist -1.07998 0 0
rhand -5.20013 -402.255 0
rfingers 7.12502 0 0
rthumb 20.6013 288.818 0
2353
root 2.4472 14.8745 -20.2084 1026.9 -83.9913 64.1156
lfemur -41.5473 -1.70747 6.73147
ltibia 34.7473 0 0
lfoot -3.98886 8.91457 0
ltoes -23.2961 0 0
rfemur -59.1643 0.771305 8.45943
rtibia 75.4015 0 0
rfoot -19.4835 -15.8055 0
rtoes -1.66576 0 0
lowerback 21.5176 1.83828 -0.613846
upperback 0.218146 2.26606 0.591154
thorax -11.9152 1.076 0.308761
lowerneck -6.2743 2.27523 -1.32168
upperneck 4.19158 3.33489 -3.53256
head 2.45413 1.51751 -0.765933
lclavicle -1.70955e-014 1.59028e-015 0
lhumerus -3.04923 -34.2002 76.2885
lradius 109.098 0 0
lwrist 55.4105 0 0
lhand -21.828 397.885 0
lfingers 7.12502 0 0
lthumb 4.57482 -652.185 0
rclavicle -1.70955e-014 1.59028e-015 0
rhumerus 34.95 21.2761 -41.6019
rradius 62.3443 0 0
rwrist -1.65416 0 0
rhand -4.93833 -402.345 0
rfingers 7.12502 0 0
rthumb 20.8527 288.756 0
2354
root 2.38125 14.8777 -20.3762 1031.03 -82.9301 60.1332
lfemur -42.9515 -1.65942 6.08766
ltibia 36.2192 0 0
lfoot -3.6849 8.69035 0
ltoes -22.7943 0 0
rfemur -58.5887 1.4746 8.67429
rtibia 75.3107 0 0
rfoot -19.8531 -16.1932 0
rtoes -1.76709 0 0
lowerback 21.5308 1.77134 -0.385089
upperback 0.180028 2.23625 0.633138
thorax -11.9585 1.05179 0.232317
lowerneck -6.27361 2.6972 -1.01051
upperneck 4.2881 3.90558 -3.88862
head 2.49608 1.7948 -0.900212
lclavicle -1.81557e-014 1.65588e-015 0
lhumerus 0.367124 -35.0126 74.8105
lradius 109.358 0 0
lwrist 53.0454 0 0
lhand -22.2504 397.623 0
lfingers 7.12502 0 0
lthumb 4.16691 -652.446 0
rclavicle -1.81557e-014 1.65588e-015 0
rhumerus 33.7062 22.5652 -42.1268
rradius 63.5718 0 0
rwrist -2.1713 0 0
rhand -4.65568 -402.426 0
rfingers 7.12502 0 0
rthumb 21.1241 288.706 0
2355
root 2.31531 14.8809 -20.5441 1035.06 -81.2761 56.2471
lfemur -44.2395 -1.61956 5.18426
ltibia 38.0151 0 0
lfoot -3.44248 8.61823 0
ltoes -22.4847 0 0
rfemur -58.0208 2.18032 8.96976
rtibia 75.2389 0 0
rfoot -20.2043 -16.5639 0
rtoes -1.80721 0 0
lowerback 21.5218 1.69364 -0.15329
upperback 0.133967 2.19416 0.676122
thorax -11.9989 1.02148 0.159023
lowerneck -6.25017 3.15259 -0.679177
upperneck 4.39162 4.5229 -4.26867
head 2.54558 2.09467 -1.04005
lclavicle -1.90266e-014 1.52546e-015 0
lhumerus 4.23058 -35.9464 73.111
lradius 109.571 0 0
lwrist 50.1306 0 0
lhand -22.7209 397.319 0
lfingers 7.12502 0 0
lthumb 3.71257 -652.751 0
rclavicle -1.90266e-014 1.52546e-015 0
rhumerus 32.3954 23.9924 -42.781
rradius 64.8233 0 0
rwrist -2.59384 0 0
rhand -4.34596 -402.524 0
rfingers 7.12502 0 0
rthumb 21.4214 288.644 0
